<svg width="2801" height="620" viewBox="0 0 2801 620" fill="none" xmlns="http://www.w3.org/2000/svg">
<path d="M1001.29 194.144H966.086V433.185H1008.37C1029.46 433.185 1048.39 428.308 1065.11 418.504C1081.87 408.725 1095.15 394.905 1104.93 377.021C1114.77 359.162 1119.68 338.199 1119.68 314.157C1119.68 289.13 1114.4 267.649 1103.85 249.716C1093.36 231.734 1079.2 217.964 1061.37 208.431C1043.52 198.922 1023.51 194.144 1001.29 194.144ZM1001.29 486.295H924.688C919.968 486.295 915.739 484.472 912.003 480.777C908.315 477.033 906.496 472.771 906.496 467.968V159.756C906.496 154.706 908.315 150.346 912.003 146.651C915.739 142.906 919.968 141.034 924.688 141.034H999.913C1023.96 141.034 1046.74 144.852 1068.26 152.464C1089.74 160.026 1108.89 171.161 1125.68 185.867C1142.45 200.598 1155.67 218.58 1165.31 239.863C1174.95 261.146 1179.77 285.459 1179.77 312.778C1179.77 339.85 1175 364.089 1165.51 385.495C1156.07 406.926 1143.01 425.155 1126.37 440.181C1109.78 455.158 1090.8 466.588 1069.44 474.471C1048.05 482.354 1025.33 486.295 1001.29 486.295Z" fill="white"/>
<path d="M1318.56 294.892C1303.13 294.892 1290.26 299.315 1279.97 308.137C1269.73 316.909 1262.55 329.042 1258.41 344.511H1379.6C1375.12 328.449 1367.54 316.143 1356.86 307.642C1346.15 299.142 1333.38 294.892 1318.56 294.892ZM1364.93 425.562C1369.97 421.361 1375.76 419.236 1382.25 419.236C1388.8 419.236 1394.81 421.707 1400.27 426.65C1405.78 431.592 1408.54 437.621 1408.54 444.738C1408.54 450.743 1406.62 455.512 1402.83 459.07C1391.8 470.141 1379.05 478.443 1364.63 483.979C1350.26 489.44 1334.9 492.183 1318.56 492.183C1294.47 492.183 1273.67 486.697 1256.15 475.676C1238.62 464.605 1225.16 449.977 1215.78 431.789C1206.46 413.602 1201.8 393.784 1201.8 372.286C1201.8 349.033 1206.55 327.658 1216.08 308.137C1225.58 288.566 1239.12 272.998 1256.64 261.384C1274.16 249.72 1295.08 243.889 1319.45 243.889C1335.2 243.889 1349.96 246.73 1363.75 252.389C1377.58 258.073 1389.76 265.832 1400.27 275.716C1410.83 285.551 1419.07 296.77 1424.98 309.422C1430.93 322.074 1433.94 335.59 1433.94 349.947C1433.94 360.103 1430.44 368.777 1423.5 375.943C1416.54 383.06 1407.85 386.618 1397.41 386.618H1258.41C1258.41 386.618 1258.61 388.447 1259 392.054C1259.44 395.613 1260.58 400.11 1262.35 405.497C1264.17 410.835 1267.22 416.271 1271.5 421.806C1275.84 427.292 1281.84 431.839 1289.52 435.447C1297.25 439.005 1307.24 440.784 1319.45 440.784C1328.95 440.784 1337.49 439.376 1345.04 436.534C1352.65 433.717 1359.27 430.06 1364.93 425.562Z" fill="white"/>
<path d="M1614.93 265.554C1617.29 259.637 1620.89 255.051 1625.76 251.747C1630.68 248.467 1636.25 246.815 1642.5 246.815C1651.16 246.815 1658.2 249.823 1663.67 255.79C1669.18 261.708 1671.94 268.562 1671.94 276.304C1671.94 279.854 1671.2 283.577 1669.77 287.448L1595.34 465.168C1588.76 481.219 1576.73 489.232 1559.2 489.232C1551.17 489.232 1543.96 487.087 1537.54 482.822C1531.16 478.482 1526.51 472.614 1523.55 465.168L1450.89 286.068C1449.36 282.271 1448.62 278.72 1448.62 275.416C1448.62 267.995 1451.28 261.387 1456.6 255.593C1461.96 249.749 1468.83 246.815 1477.18 246.815C1483.09 246.815 1488.4 248.467 1493.13 251.747C1497.9 255.051 1501.35 259.341 1503.47 264.666L1560.48 405.304L1614.93 265.554Z" fill="white"/>
<path d="M1810.81 194.144H1775.61V433.185H1817.89C1838.99 433.185 1857.92 428.308 1874.63 418.504C1891.4 408.725 1904.67 394.905 1914.46 377.021C1924.29 359.162 1929.21 338.199 1929.21 314.157C1929.21 289.13 1923.92 267.649 1913.38 249.716C1902.88 231.734 1888.72 217.964 1870.9 208.431C1853.05 198.922 1833.04 194.144 1810.81 194.144ZM1810.81 486.295H1734.21C1729.49 486.295 1725.26 484.472 1721.53 480.777C1717.84 477.033 1716.02 472.771 1716.02 467.968V159.756C1716.02 154.706 1717.84 150.346 1721.53 146.651C1725.26 142.906 1729.49 141.034 1734.21 141.034H1809.44C1833.48 141.034 1856.27 144.852 1877.78 152.464C1899.26 160.026 1918.42 171.161 1935.21 185.867C1951.97 200.598 1965.2 218.58 1974.83 239.863C1984.47 261.146 1989.29 285.459 1989.29 312.778C1989.29 339.85 1984.52 364.089 1975.03 385.495C1965.59 406.926 1952.54 425.155 1935.89 440.181C1919.3 455.158 1900.32 466.588 1878.96 474.471C1857.57 482.354 1834.86 486.295 1810.81 486.295Z" fill="white"/>
<path d="M2170.84 403.126C2170.84 394.502 2168.3 387.459 2163.24 381.973C2158.16 376.438 2151.62 372.336 2143.6 369.618C2135.55 366.925 2127.06 365.566 2118.13 365.566C2104.43 365.566 2092.52 369 2082.4 375.845C2072.25 382.715 2067.2 391.808 2067.2 403.126C2067.2 414.468 2071.86 423.735 2081.21 430.901C2090.62 438.092 2102.46 441.675 2116.75 441.675C2126.03 441.675 2134.74 440.266 2142.91 437.424C2151.13 434.607 2157.84 430.357 2163.05 424.674C2168.23 419.015 2170.84 411.824 2170.84 403.126ZM2198.58 489.515C2191.4 489.515 2185.35 487.192 2180.42 482.596C2175.53 478 2172.65 472.267 2171.73 465.397L2171.34 462.234C2171.34 462.234 2169.98 463.766 2167.29 466.781C2164.58 469.746 2160.48 473.255 2154.95 477.258C2149.47 481.286 2142.56 484.77 2134.22 487.736C2125.86 490.701 2115.89 492.183 2104.31 492.183C2087.93 492.183 2072.62 488.551 2058.41 481.311C2044.24 473.996 2032.87 463.717 2024.26 450.472C2015.62 437.177 2011.32 421.56 2011.32 403.62C2011.32 385.112 2015.79 369.692 2024.75 357.362C2033.68 344.981 2045.23 335.665 2059.4 329.389C2073.54 323.063 2088.64 319.9 2104.71 319.9C2118.72 319.9 2130.49 321.778 2140.05 325.534C2149.57 329.29 2156.85 333.12 2161.86 337C2166.92 340.83 2169.46 342.733 2169.46 342.733V334.726C2169.46 323.656 2165.27 314.118 2156.93 306.062C2148.63 298.031 2133.75 294.003 2112.31 294.003C2104.53 294.003 2096.76 294.769 2089.01 296.276C2081.31 297.734 2074.75 298.451 2069.37 298.451C2062.85 298.451 2057.18 296.622 2052.39 292.916C2047.65 289.16 2045.28 283.872 2045.28 277.002C2045.28 267.785 2049.13 260.792 2056.83 256.047C2064.58 251.253 2074.43 248.016 2086.35 246.361C2098.31 244.73 2110.56 243.89 2123.07 243.89C2159.39 243.89 2185.58 252.341 2201.64 269.193C2217.76 285.997 2225.83 312.166 2225.83 347.675V462.234C2225.83 469.697 2223.19 476.122 2217.93 481.508C2212.72 486.846 2206.28 489.515 2198.58 489.515Z" fill="white"/>
<path d="M2391.5 440.467C2405.72 440.147 2417.72 436.619 2427.51 429.908C2437.35 423.198 2444.75 414.366 2449.74 403.362C2454.79 392.31 2457.32 380.542 2457.32 368.034C2457.32 355.55 2454.79 343.807 2449.74 332.804C2444.75 321.751 2437.57 312.746 2428.2 305.764C2418.8 298.733 2407.46 295.205 2394.16 295.205C2381.96 295.205 2370.79 298.437 2360.71 304.876C2350.6 311.266 2342.55 319.975 2336.6 331.027C2330.7 342.03 2327.75 354.662 2327.75 368.922C2327.75 381.158 2330.21 392.704 2335.12 403.56C2340.04 414.415 2347.23 423.198 2356.67 429.908C2366.17 436.619 2377.78 440.147 2391.5 440.467ZM2302.85 584.743C2295.11 584.743 2288.42 581.906 2282.78 576.256C2277.13 570.582 2274.32 563.871 2274.32 556.124V272.014C2274.32 264.86 2276.73 258.84 2281.6 253.955C2286.52 249.021 2292.55 246.554 2299.71 246.554C2306.25 246.554 2311.96 248.799 2316.83 253.265C2321.74 257.755 2324.33 263.232 2324.6 269.745L2325.58 282.771C2335.03 272.064 2346.34 262.911 2359.52 255.337C2372.76 247.714 2387.56 243.89 2403.9 243.89C2418.46 243.89 2432.33 247.023 2445.51 253.265C2458.75 259.531 2470.63 268.314 2481.13 279.613C2491.68 290.937 2500.02 304.358 2506.12 319.876C2512.22 335.345 2515.27 352.442 2515.27 371.191C2515.27 395.616 2510.06 416.931 2499.63 435.138C2489.25 453.296 2475.45 467.285 2458.21 477.079C2441.01 486.873 2422.32 491.783 2402.13 491.783C2386.7 491.783 2373.42 489.044 2362.28 483.592C2351.11 478.066 2340.78 470.245 2331.29 460.105V556.124C2331.29 563.871 2328.46 570.582 2322.83 576.256C2317.17 581.906 2310.53 584.743 2302.85 584.743Z" fill="white"/>
<path d="M2676.52 440.467C2690.73 440.147 2702.74 436.619 2712.53 429.908C2722.36 423.198 2729.77 414.366 2734.76 403.362C2739.8 392.31 2742.34 380.542 2742.34 368.034C2742.34 355.55 2739.8 343.807 2734.76 332.804C2729.77 321.751 2722.59 312.746 2713.21 305.764C2703.82 298.733 2692.48 295.205 2679.17 295.205C2666.97 295.205 2655.81 298.437 2645.72 304.876C2635.61 311.266 2627.57 319.975 2621.62 331.027C2615.71 342.03 2612.76 354.662 2612.76 368.922C2612.76 381.158 2615.22 392.704 2620.14 403.56C2625.06 414.415 2632.24 423.198 2641.69 429.908C2651.18 436.619 2662.79 440.147 2676.52 440.467ZM2587.87 584.743C2580.12 584.743 2573.43 581.906 2567.8 576.256C2562.14 570.582 2559.34 563.871 2559.34 556.124V272.014C2559.34 264.86 2561.75 258.84 2566.62 253.955C2571.54 249.021 2577.56 246.554 2584.72 246.554C2591.26 246.554 2596.97 248.799 2601.84 253.265C2606.76 257.755 2609.34 263.232 2609.61 269.745L2610.6 282.771C2620.04 272.064 2631.36 262.911 2644.54 255.337C2657.77 247.714 2672.58 243.89 2688.91 243.89C2703.47 243.89 2717.35 247.023 2730.53 253.265C2743.76 259.531 2755.64 268.314 2766.15 279.613C2776.7 290.937 2785.04 304.358 2791.14 319.876C2797.24 335.345 2800.29 352.442 2800.29 371.191C2800.29 395.616 2795.07 416.931 2784.64 435.138C2774.26 453.296 2760.46 467.285 2743.22 477.079C2726.03 486.873 2707.34 491.783 2687.14 491.783C2671.72 491.783 2658.44 489.044 2647.3 483.592C2636.13 478.066 2625.8 470.245 2616.3 460.105V556.124C2616.3 563.871 2613.47 570.582 2607.84 576.256C2602.19 581.906 2595.54 584.743 2587.87 584.743Z" fill="white"/>
<path d="M711.496 14.5242C708.745 5.87571 700.698 0 691.603 0H659.984C645.847 0 635.8 13.7289 640.106 27.1633L730.907 310.416C732.258 314.63 732.228 319.164 730.821 323.361L640.59 592.576C636.07 606.062 646.13 620 660.383 620H691.812C700.806 620 708.788 614.251 711.62 605.735L805.526 323.315C806.912 319.147 806.942 314.648 805.611 310.462L711.496 14.5242Z" fill="white"/>
<path d="M131.13 486.302H426.356C426.606 486.302 426.862 486.305 427.121 486.302H429.381C473.532 485.475 513.443 466.759 542.499 436.825C572.228 406.202 590.616 363.9 590.616 317.174C590.616 270.454 572.228 228.152 542.499 197.53C513.538 167.696 473.791 148.058 429.81 147.116H288.813C277.313 147.116 267.99 156.446 267.99 167.955V207.137V388.782C267.99 400.291 277.313 409.621 288.813 409.621H305.437C316.938 409.621 326.26 400.291 326.26 388.782V228.293C326.26 216.784 335.583 207.454 347.083 207.454H426.353C455.619 207.454 482.124 220.213 501.301 239.972C520.478 259.728 532.334 287.024 532.334 317.177C532.334 347.33 520.478 374.629 501.301 394.385C482.124 414.144 452.798 427.099 423.529 427.099H127.395C118.316 427.099 110.284 421.213 107.543 412.551L79.3586 323.474C78.0632 319.38 78.0633 314.985 79.359 310.891L169.162 27.1313C173.413 13.6966 163.392 0 149.311 0H116.731C107.703 0 99.7034 5.82204 96.9214 14.4173L1.01337 310.728C-0.343842 314.921 -0.337617 319.437 1.03116 323.626L52.1532 480.095C53.363 483.797 56.8144 486.302 60.707 486.302V486.302H117.955H131.13Z" fill="white"/>
<path d="M668.484 316.959C668.484 248.097 641.393 185.756 597.598 140.625C553.801 95.4953 493.295 67.582 426.471 67.582H248.782H211.388C199.904 67.582 190.595 76.9019 190.595 88.3986V127.098V388.489C190.595 399.986 199.904 409.306 211.388 409.306H227.989C239.472 409.306 248.782 399.986 248.782 388.489V148.032C248.782 136.535 258.091 127.216 269.575 127.216H427.414C477.805 127.475 523.402 148.953 556.463 183.022C589.723 217.295 610.295 264.652 610.295 316.959C610.295 369.272 589.725 416.627 556.463 450.911C523.192 485.181 477.239 506.864 426.471 506.864H146.809H146.068H89.8611C75.7307 506.864 65.7158 520.671 70.089 534.123L77.6073 557.249C77.6079 557.251 77.6082 557.253 77.6082 557.255V557.255C77.6082 557.257 77.6085 557.259 77.6091 557.26L80.5211 566.213C80.5462 566.29 80.6178 566.342 80.6986 566.342V566.342C80.7776 566.342 80.8481 566.392 80.8745 566.467L94.9515 606.149C97.8969 614.452 105.745 619.999 114.546 619.999H147.99C161.843 619.999 171.451 606.174 166.636 593.171L156.705 566.355C156.703 566.349 156.707 566.342 156.714 566.342H156.805C156.807 566.342 156.807 566.34 156.805 566.339V566.339C156.803 566.339 156.804 566.337 156.805 566.337L429.371 566.319C429.387 566.319 429.4 566.306 429.4 566.29V566.29C429.4 566.275 429.413 566.262 429.429 566.261C495.074 565.451 554.457 537.752 597.601 493.296C641.396 448.166 668.484 385.824 668.484 316.959Z" fill="white"/>
</svg>
